<svg xmlns="http://www.w3.org/2000/svg" viewBox="0 0 1200 800" fill="none">
  <!-- Plano Arquitectónico de Hospital - Estilo Blueprint -->
  
  <!-- Grid de fondo -->
  <defs>
    <!-- Grid pattern -->
    <pattern id="grid" width="50" height="50" patternUnits="userSpaceOnUse">
      <path d="M 50 0 L 0 0 0 50" fill="none" stroke="#06B6D4" stroke-width="0.5" opacity="0.3"/>
    </pattern>
    
    <!-- Grid mayor -->
    <pattern id="gridMajor" width="200" height="200" patternUnits="userSpaceOnUse">
      <rect width="200" height="200" fill="url(#grid)"/>
      <path d="M 200 0 L 0 0 0 200" fill="none" stroke="#06B6D4" stroke-width="1" opacity="0.5"/>
    </pattern>
  </defs>
  
  <!-- Fondo con grid -->
  <rect width="1200" height="800" fill="url(#gridMajor)"/>
  
  <!-- Planta Arquitectónica del Hospital -->
  <g stroke="#FFFFFF" stroke-width="2" fill="none" opacity="0.6">
    
    <!-- Edificio Principal -->
    <rect x="200" y="150" width="800" height="500" stroke-width="3"/>
    
    <!-- Área de Emergencias (izquierda) -->
    <rect x="200" y="150" width="200" height="200"/>
    <text x="300" y="240" font-family="monospace" font-size="14" fill="#06B6D4" text-anchor="middle" opacity="0.8">EMERGENCIAS</text>
    <!-- Símbolo cruz -->
    <line x1="280" y1="200" x2="320" y2="200" stroke="#EF4444" stroke-width="3"/>
    <line x1="300" y1="180" x2="300" y2="220" stroke="#EF4444" stroke-width="3"/>
    
    <!-- Salas de Operación (centro superior) -->
    <rect x="400" y="150" width="400" height="150"/>
    <text x="600" y="215" font-family="monospace" font-size="14" fill="#10B981" text-anchor="middle" opacity="0.8">QUIRÓFANOS</text>
    <!-- Mesas quirúrgicas -->
    <rect x="450" y="180" width="60" height="40" fill="#10B981" opacity="0.3"/>
    <rect x="550" y="180" width="60" height="40" fill="#10B981" opacity="0.3"/>
    <rect x="650" y="180" width="60" height="40" fill="#10B981" opacity="0.3"/>
    
    <!-- UCI (derecha superior) -->
    <rect x="800" y="150" width="200" height="200"/>
    <text x="900" y="240" font-family="monospace" font-size="14" fill="#F59E0B" text-anchor="middle" opacity="0.8">UCI</text>
    <!-- Camas -->
    <rect x="820" y="180" width="40" height="25" stroke="#F59E0B"/>
    <rect x="870" y="180" width="40" height="25" stroke="#F59E0B"/>
    <rect x="920" y="180" width="40" height="25" stroke="#F59E0B"/>
    <rect x="820" y="220" width="40" height="25" stroke="#F59E0B"/>
    <rect x="870" y="220" width="40" height="25" stroke="#F59E0B"/>
    <rect x="920" y="220" width="40" height="25" stroke="#F59E0B"/>
    
    <!-- Habitaciones (centro) -->
    <rect x="200" y="350" width="600" height="300"/>
    <text x="500" y="490" font-family="monospace" font-size="16" fill="#FFFFFF" text-anchor="middle" opacity="0.7">HABITACIONES</text>
    
    <!-- Grid de habitaciones -->
    <line x1="350" y1="350" x2="350" y2="650"/>
    <line x1="500" y1="350" x2="500" y2="650"/>
    <line x1="650" y1="350" x2="650" y2="650"/>
    <line x1="200" y1="425" x2="800" y2="425"/>
    <line x1="200" y1="500" x2="800" y2="500"/>
    <line x1="200" y1="575" x2="800" y2="575"/>
    
    <!-- Laboratorio (derecha inferior) -->
    <rect x="800" y="350" width="200" height="150"/>
    <text x="900" y="415" font-family="monospace" font-size="14" fill="#8B5CF6" text-anchor="middle" opacity="0.8">LABORATORIO</text>
    <!-- Equipos -->
    <circle cx="860" cy="450" r="15" stroke="#8B5CF6"/>
    <circle cx="900" cy="450" r="15" stroke="#8B5CF6"/>
    <circle cx="940" cy="450" r="15" stroke="#8B5CF6"/>
    
    <!-- Imagenología (derecha inferior) -->
    <rect x="800" y="500" width="200" height="150"/>
    <text x="900" y="560" font-family="monospace" font-size="14" fill="#EC4899" text-anchor="middle" opacity="0.8">IMAGENOLOGÍA</text>
    <!-- Equipos de imagen -->
    <rect x="830" y="580" width="50" height="40" stroke="#EC4899"/>
    <text x="855" y="605" font-family="monospace" font-size="10" fill="#EC4899" text-anchor="middle">RX</text>
    <rect x="920" y="580" width="50" height="40" stroke="#EC4899"/>
    <text x="945" y="605" font-family="monospace" font-size="10" fill="#EC4899" text-anchor="middle">TAC</text>
    
    <!-- Pasillos principales -->
    <line x1="400" y1="300" x2="800" y2="300" stroke="#06B6D4" stroke-width="3" stroke-dasharray="10,5"/>
    <line x1="800" y1="150" x2="800" y2="650" stroke="#06B6D4" stroke-width="3" stroke-dasharray="10,5"/>
    
    <!-- Puertas -->
    <line x1="280" y1="150" x2="320" y2="150" stroke="#FFFFFF" stroke-width="4"/>
    <line x1="580" y1="150" x2="620" y2="150" stroke="#FFFFFF" stroke-width="4"/>
    <line x1="880" y1="150" x2="920" y2="150" stroke="#FFFFFF" stroke-width="4"/>
    
    <!-- Escaleras -->
    <g transform="translate(420, 320)">
      <rect width="60" height="60" stroke="#06B6D4" stroke-width="2"/>
      <line x1="10" y1="10" x2="50" y2="50" stroke="#06B6D4"/>
      <line x1="20" y1="10" x2="60" y2="50" stroke="#06B6D4"/>
      <line x1="10" y1="20" x2="50" y2="60" stroke="#06B6D4"/>
      <text x="30" y="35" font-family="monospace" font-size="10" fill="#06B6D4" text-anchor="middle">ESC</text>
    </g>
    
    <!-- Ascensores -->
    <g transform="translate(520, 320)">
      <rect width="30" height="60" stroke="#F59E0B" stroke-width="2"/>
      <rect x="35" width="30" height="60" stroke="#F59E0B" stroke-width="2"/>
      <text x="32.5" y="85" font-family="monospace" font-size="10" fill="#F59E0B" text-anchor="middle">ASC</text>
    </g>
  </g>
  
  <!-- Anotaciones técnicas -->
  <g font-family="monospace" font-size="12" fill="#06B6D4" opacity="0.5">
    <text x="50" y="100">PLANTA: PRIMER PISO</text>
    <text x="50" y="120">ESCALA: 1:200</text>
    <text x="50" y="140">ÁREA TOTAL: 400m²</text>
    
    <!-- Dimensiones -->
    <text x="600" y="130" text-anchor="middle">40.00m</text>
    <text x="170" y="400" text-anchor="middle" transform="rotate(-90 170 400)">25.00m</text>
  </g>
  
  <!-- Leyenda -->
  <g transform="translate(50, 600)">
    <text x="0" y="0" font-family="monospace" font-size="14" fill="#FFFFFF" font-weight="bold">LEYENDA:</text>
    <rect x="0" y="10" width="20" height="15" stroke="#EF4444" stroke-width="2" fill="none"/>
    <text x="30" y="22" font-family="monospace" font-size="12" fill="#EF4444">Emergencias</text>
    
    <rect x="0" y="35" width="20" height="15" stroke="#10B981" stroke-width="2" fill="none"/>
    <text x="30" y="47" font-family="monospace" font-size="12" fill="#10B981">Quirófanos</text>
    
    <rect x="0" y="60" width="20" height="15" stroke="#F59E0B" stroke-width="2" fill="none"/>
    <text x="30" y="72" font-family="monospace" font-size="12" fill="#F59E0B">UCI</text>
    
    <rect x="0" y="85" width="20" height="15" stroke="#8B5CF6" stroke-width="2" fill="none"/>
    <text x="30" y="97" font-family="monospace" font-size="12" fill="#8B5CF6">Laboratorio</text>
    
    <rect x="0" y="110" width="20" height="15" stroke="#EC4899" stroke-width="2" fill="none"/>
    <text x="30" y="122" font-family="monospace" font-size="12" fill="#EC4899">Imagenología</text>
  </g>
  
  <!-- Sello profesional -->
  <g transform="translate(1000, 650)">
    <circle cx="50" cy="50" r="45" stroke="#06B6D4" stroke-width="2" fill="none" opacity="0.6"/>
    <text x="50" y="45" font-family="Arial" font-size="12" fill="#FFFFFF" text-anchor="middle" opacity="0.7">GRUPO</text>
    <text x="50" y="60" font-family="Arial" font-size="16" fill="#06B6D4" text-anchor="middle" font-weight="bold">RIVAMEZ</text>
    <text x="50" y="72" font-family="Arial" font-size="8" fill="#FFFFFF" text-anchor="middle" opacity="0.6">CONSTRUCTORA</text>
  </g>
  
  <!-- Líneas de medida decorativas -->
  <line x1="200" y1="680" x2="1000" y2="680" stroke="#06B6D4" stroke-width="1" opacity="0.3" stroke-dasharray="5,5"/>
  <line x1="170" y1="150" x2="170" y2="650" stroke="#06B6D4" stroke-width="1" opacity="0.3" stroke-dasharray="5,5"/>
</svg>
