<svg xmlns="http://www.w3.org/2000/svg" viewBox="0 0 100 100">
  <!-- RIVAMEZ Favicon - Logo R en casco de construcción -->
  
  <!-- Background Circle -->
  <circle cx="50" cy="50" r="48" fill="#0F172A"/>
  <circle cx="50" cy="50" r="45" fill="url(#grad1)"/>
  
  <!-- Gradient -->
  <defs>
    <linearGradient id="grad1" x1="0%" y1="0%" x2="100%" y2="100%">
      <stop offset="0%" style="stop-color:#06B6D4;stop-opacity:1" />
      <stop offset="100%" style="stop-color:#0891B2;stop-opacity:1" />
    </linearGradient>
  </defs>
  
  <!-- Casco de seguridad simple -->
  <path d="M 30 35 Q 30 25 50 22 Q 70 25 70 35 L 70 40 Q 70 42 68 42 L 32 42 Q 30 42 30 40 Z" fill="#FFA500"/>
  <rect x="32" y="38" width="36" height="3" fill="#FFEB3B"/>
  
  <!-- Letra R estilo construcción -->
  <g fill="#FFFFFF" stroke="#0F172A" stroke-width="1">
    <path d="M 35 50 L 35 80 L 42 80 L 42 67 L 50 67 L 58 80 L 66 80 L 57 66 Q 62 64 62 58 Q 62 50 52 50 Z M 42 56 L 52 56 Q 55 56 55 59 Q 55 62 52 62 L 42 62 Z"/>
  </g>
  
  <!-- Detalles de brillo -->
  <circle cx="25" cy="30" r="3" fill="#FFFFFF" opacity="0.4"/>
  <circle cx="75" cy="70" r="2" fill="#FFFFFF" opacity="0.3"/>
</svg>
